Coordinates
version=1
nRows=10
nColumns=40
inDegrees=yes

Units are S.I. units (second, meters, Newtons, ...)
If the header above contains a line with 'inDegrees', this indicates whether rotational values are in degrees (yes) or radians (no).

endheader
time	pelvis_tilt	pelvis_list	pelvis_rotation	pelvis_tx	pelvis_ty	pelvis_tz	hip_flexion_r	hip_adduction_r	hip_rotation_r	knee_angle_r	knee_angle_r_beta	ankle_angle_r	subtalar_angle_r	mtp_angle_r	hip_flexion_l	hip_adduction_l	hip_rotation_l	knee_angle_l	knee_angle_l_beta	ankle_angle_l	subtalar_angle_l	mtp_angle_l	lumbar_extension	lumbar_bending	lumbar_rotation	arm_flex_r	arm_add_r	arm_rot_r	elbow_flex_r	pro_sup_r	wrist_flex_r	wrist_dev_r	arm_flex_l	arm_add_l	arm_rot_l	elbow_flex_l	pro_sup_l	wrist_flex_l	wrist_dev_l
1749651079.67600012	     -8.69411608	     16.42176141	    -33.22605917	      0.19119431	     -0.42194150	      0.77819112	     80.00000000	     -7.00000000	      0.00000000	     80.00000000	      1.39626340	      0.00000000	      0.00000000	      0.00000000	     80.00000000	     -7.00000000	      0.00000000	     80.00000000	      1.39626340	      0.00000000	      0.00000000	      0.00000000	     -5.81262511	     11.73905055	    -23.60433356	    -36.65113619	    -39.80161549	     89.93637583	     82.35228124	     89.11810777	      0.00000000	      5.00000014	    -34.52099994	     -8.58282794	    -89.46238256	      0.04619893	      0.62710992	      0.00000000	      5.00000014
1749651079.71000004	      3.06132589	     -8.13511285	    -90.89328169	      0.14945745	     -0.39295228	      0.91390212	     80.00000000	     -7.00000000	      0.00000000	     80.00000000	      1.39626340	      0.00000000	      0.00000000	      0.00000000	     80.00000000	     -7.00000000	      0.00000000	     80.00000000	      1.39626340	      0.00000000	      0.00000000	      0.00000000	    -26.73009675	     -4.58795461	     25.41139492	    -42.24342211	    -42.40458852	     89.93377680	     84.67378321	     89.08036550	      0.00000000	      5.00000014	    -45.11852339	     -5.59102778	    -89.41157922	      0.04896659	      0.64659669	      0.00000000	      5.00000014
1749651079.74300003	      1.55632451	     -1.38370703	    -75.02763419	      0.16358667	     -0.40108931	      0.90010139	     80.00000000	     -7.00000000	      0.00000000	     80.00000000	      1.39626340	      0.00000000	      0.00000000	      0.00000000	     80.00000000	     -7.00000000	      0.00000000	     80.00000000	      1.39626340	      0.00000000	      0.00000000	      0.00000000	    -19.51137727	      0.16943279	      9.29732970	    -36.12525256	    -45.44673572	     89.93398227	     89.32400196	     89.08130408	      0.00000000	      5.00000014	    -46.48641773	     -5.03861360	    -89.38213409	      0.04893974	      0.63283030	      0.00000000	      5.00000014
1749651079.77699995	     -5.38990748	      4.83251916	    -53.95671775	      0.18183395	     -0.42873541	      0.85990650	     80.00000000	     -7.00000000	      0.00000000	     80.00000000	      1.39626340	      0.00000000	      0.00000000	      0.00000000	     80.00000000	     -7.00000000	      0.00000000	     80.00000000	      1.39626340	      0.00000000	      0.00000000	      0.00000000	     -9.39006839	      9.08953872	    -10.80382242	    -30.61935119	    -53.99332171	     89.92456338	    103.05886473	     88.98511590	      0.00000000	      5.00000014	    -48.80875596	     -4.74404017	    -89.34626806	      0.04714793	      0.58821964	      0.00000000	      5.00000014
1749651079.80999994	      1.58292404	      2.46875344	    -69.83668695	      0.16744791	     -0.40572987	      0.88773108	     80.00000000	     -7.00000000	      0.00000000	     80.00000000	      1.39626340	      0.00000000	      0.00000000	      0.00000000	     80.00000000	     -7.00000000	      0.00000000	     80.00000000	      1.39626340	      0.00000000	      0.00000000	      0.00000000	    -13.67391823	      1.10199716	      7.71058938	    -32.54485983	    -47.63848948	     89.91262124	     99.08793415	     88.81277377	      0.00000000	      5.00000014	    -46.88808671	     -9.82443394	    -88.99091215	      0.05892339	      0.67091936	      0.00000000	      5.00000014
1749651079.84400010	      2.03564142	      2.76377928	    -69.37029924	      0.16471022	     -0.40281375	      0.88962145	     80.00000000	     -7.00000000	      0.00000000	     80.00000000	      1.39626340	      0.00000000	      0.00000000	      0.00000000	     80.00000000	     -7.00000000	      0.00000000	     80.00000000	      1.39626340	      0.00000000	      0.00000000	      0.00000000	    -10.67110503	      1.12026149	     14.02248930	    -37.03184532	    -38.21068622	     89.90497848	     95.91863612	     88.65727940	      0.00000000	      5.00000014	    -44.98687194	    -17.15374551	    -88.05982323	      0.07098706	      0.72836023	      0.00000000	      5.00000014
1749651079.87700009	      2.34002749	      1.76427530	    -69.55069531	      0.16521796	     -0.39859193	      0.89253614	     80.00000000	     -7.00000000	      0.00000000	     80.00000000	      1.39626340	      0.00000000	      0.00000000	      0.00000000	     80.00000000	     -7.00000000	      0.00000000	     80.00000000	      1.39626340	      0.00000000	      0.00000000	      0.00000000	     -8.13494375	      3.01674602	     19.65466010	    -41.99155328	    -28.99517683	     89.88781867	     93.49035178	     88.37957365	      0.00000000	      5.00000014	    -42.18132714	    -23.03773716	    -84.27970840	      0.08459063	      0.82477252	      0.00000000	      5.00000014
1749651079.91100001	      2.58212509	      0.91922251	    -69.25001709	      0.16682942	     -0.40021302	      0.89537250	     80.00000000	     -7.00000000	      0.00000000	     80.00000000	      1.39626340	      0.00000000	      0.00000000	      0.00000000	     80.00000000	     -7.00000000	      0.00000000	     80.00000000	      1.39626340	      0.00000000	      0.00000000	      0.00000000	     -3.71718448	      3.51382079	     17.32342320	    -39.23023685	    -34.91825441	     89.75538606	    109.06811174	     87.25654031	      0.00000000	      5.00000014	    -46.85642781	    -22.98840554	    -83.96794096	      0.08573146	      0.88387973	      0.00000000	      5.00000014
1749651079.94400001	      2.21145144	     -0.32973863	    -69.79438034	      0.16329901	     -0.40096699	      0.90018193	     80.00000000	     -7.00000000	      0.00000000	     80.00000000	      1.39626340	      0.00000000	      0.00000000	      0.00000000	     80.00000000	     -7.00000000	      0.00000000	     80.00000000	      1.39626340	      0.00000000	      0.00000000	      0.00000000	      0.65615001	      3.41336370	     12.69895271	    -40.24770084	    -31.12680843	     89.65073293	    119.43124262	     86.82849824	      0.00000000	      5.00000014	    -53.95320290	    -19.83545105	    -85.87238375	      0.08414223	      0.95829680	      0.00000000	      5.00000014
1749651079.97799993	     -2.54159245	     -3.71605237	    -73.23986166	      0.15548982	     -0.41312385	      0.91111991	     80.00000000	     -7.00000000	      0.00000000	     80.00000000	      1.39626340	      0.00000000	      0.00000000	      0.00000000	     80.00000000	     -7.00000000	      0.00000000	     80.00000000	      1.39626340	      0.00000000	      0.00000000	      0.00000000	      4.33400247	      8.02991542	      9.21083490	    -43.44066469	    -30.02281415	     89.67138822	    137.92666634	     87.38463636	      0.00000000	      5.00000014	    -64.31015363	    -14.00774394	    -87.59045030	      0.07959643	      1.02144606	      0.00000000	      5.00000014
